<svg width="24" height="24" viewBox="0 0 24 24" fill="none" xmlns="http://www.w3.org/2000/svg">
<path fill-rule="evenodd" clip-rule="evenodd" d="M12 3C7.02832 3 3 7.13008 3 12.2273C3 16.3034 5.57813 19.7636 9.15527 20.9831C9.60645 21.0672 9.77051 20.7849 9.77051 20.5386C9.77051 20.3193 9.76172 19.7396 9.75879 18.9706C7.25391 19.5263 6.72656 17.7331 6.72656 17.7331C6.31641 16.6668 5.72754 16.3815 5.72754 16.3815C4.91016 15.8108 5.78906 15.8228 5.78906 15.8228C6.69141 15.8889 7.16602 16.7719 7.16602 16.7719C7.96875 18.1837 9.27246 17.7752 9.78516 17.5409C9.86719 16.9431 10.1016 16.5377 10.3564 16.3064C8.3584 16.0751 6.25781 15.2821 6.25781 11.7468C6.25781 10.7375 6.60938 9.9145 7.18359 9.26871C7.09277 9.03743 6.78223 8.09727 7.27149 6.82671C7.27149 6.82671 8.02734 6.5804 9.74707 7.77287C10.4648 7.56862 11.2354 7.46649 12 7.46349C12.7646 7.46649 13.5352 7.56862 14.2529 7.77287C15.9727 6.5804 16.7256 6.82671 16.7256 6.82671C17.2178 8.09727 16.9102 9.03743 16.8164 9.26871C17.3936 9.9145 17.7393 10.7375 17.7393 11.7468C17.7393 15.2911 15.6357 16.0691 13.6318 16.3004C13.9541 16.5827 14.2412 17.1474 14.2412 18.0065C14.2412 19.241 14.2324 20.2352 14.2324 20.5386C14.2324 20.7849 14.3936 21.0732 14.8506 20.9831C18.4248 19.7606 21 16.3034 21 12.2273C21 7.13008 16.9717 3 12 3Z" fill="currentColor"/>
</svg>
