<svg width="40" height="40" viewBox="0 0 40 40" fill="none" xmlns="http://www.w3.org/2000/svg">
<g clip-path="url(#clip0_1_166)">
<path fill-rule="evenodd" clip-rule="evenodd" d="M32.9617 7.38333C33.3736 7.20998 33.8244 7.1502 34.2672 7.21019C34.71 7.27019 35.1287 7.44778 35.4796 7.72447C35.8304 8.00117 36.1008 8.36686 36.2624 8.78347C36.424 9.20009 36.4709 9.6524 36.3984 10.0933L32.6184 33.0217C32.2517 35.2333 29.8251 36.5017 27.7967 35.4C26.1001 34.4783 23.5801 33.0583 21.3134 31.5767C20.1801 30.835 16.7084 28.46 17.1351 26.77C17.5017 25.325 23.3351 19.895 26.6684 16.6667C27.9767 15.3983 27.3801 14.6667 25.8351 15.8333C21.9984 18.73 15.8384 23.135 13.8017 24.375C12.0051 25.4683 11.0684 25.655 9.94841 25.4683C7.90507 25.1283 6.01007 24.6017 4.46341 23.96C2.37341 23.0933 2.47507 20.22 4.46174 19.3833L32.9617 7.38333Z" fill="#FDFDC9"/>
</g>
<defs>
<clipPath id="clip0_1_166">
<rect width="40" height="40" fill="white"/>
</clipPath>
</defs>
</svg>
